<svg width="326" height="134" viewBox="0 0 326 134" fill="none" xmlns="http://www.w3.org/2000/svg">
<rect x="23" y="35" width="303" height="99" rx="7" fill="url(#paint0_linear_171_2)"/>
<rect width="312" height="121" rx="7" fill="url(#paint1_linear_171_2)"/>
<path d="M46.36 36.72C47.544 36.72 48.5787 36.96 49.464 37.44C50.36 37.9093 51.048 38.5707 51.528 39.424C52.008 40.2773 52.248 41.2533 52.248 42.352C52.248 43.44 52.0027 44.4107 51.512 45.264C51.032 46.1173 50.344 46.7893 49.448 47.28C48.5627 47.76 47.5333 48 46.36 48H41.896V36.72H46.36ZM46.12 45.232C47.0373 45.232 47.7573 44.9813 48.28 44.48C48.8027 43.9787 49.064 43.2693 49.064 42.352C49.064 41.424 48.8027 40.7093 48.28 40.208C47.7573 39.696 47.0373 39.44 46.12 39.44H45.032V45.232H46.12ZM57.8376 48.112C56.9416 48.112 56.1363 47.9253 55.4216 47.552C54.7176 47.1787 54.163 46.6453 53.7576 45.952C53.3523 45.2587 53.1496 44.4427 53.1496 43.504C53.1496 42.576 53.3523 41.7653 53.7576 41.072C54.1736 40.3787 54.7336 39.8453 55.4376 39.472C56.1523 39.0987 56.9576 38.912 57.8536 38.912C58.7496 38.912 59.5496 39.0987 60.2536 39.472C60.9683 39.8453 61.5283 40.3787 61.9336 41.072C62.3496 41.7653 62.5576 42.576 62.5576 43.504C62.5576 44.432 62.3496 45.248 61.9336 45.952C61.5283 46.6453 60.9683 47.1787 60.2536 47.552C59.539 47.9253 58.7336 48.112 57.8376 48.112ZM57.8376 45.392C58.275 45.392 58.6376 45.232 58.9256 44.912C59.2243 44.5813 59.3736 44.112 59.3736 43.504C59.3736 42.896 59.2243 42.432 58.9256 42.112C58.6376 41.792 58.2803 41.632 57.8536 41.632C57.427 41.632 57.0696 41.792 56.7816 42.112C56.4936 42.432 56.3496 42.896 56.3496 43.504C56.3496 44.1227 56.4883 44.592 56.7656 44.912C57.043 45.232 57.4003 45.392 57.8376 45.392ZM77.0975 39.024L74.8095 48H71.2895L70.0415 42.56L68.7455 48H65.2415L62.9695 39.024H66.0895L67.0975 44.976L68.4255 39.024H71.7855L73.1615 44.992L74.1535 39.024H77.0975ZM83.8618 38.944C84.8964 38.944 85.7178 39.2907 86.3258 39.984C86.9338 40.6667 87.2378 41.5947 87.2378 42.768V48H84.1018V43.184C84.1018 42.672 83.9684 42.272 83.7018 41.984C83.4351 41.6853 83.0778 41.536 82.6298 41.536C82.1604 41.536 81.7924 41.6853 81.5258 41.984C81.2591 42.272 81.1258 42.672 81.1258 43.184V48H77.9898V39.024H81.1258V40.304C81.4031 39.8987 81.7764 39.5733 82.2458 39.328C82.7151 39.072 83.2538 38.944 83.8618 38.944ZM92.0945 36.16V48H88.9585V36.16H92.0945ZM98.0564 48.112C97.1604 48.112 96.355 47.9253 95.6404 47.552C94.9364 47.1787 94.3817 46.6453 93.9764 45.952C93.571 45.2587 93.3684 44.4427 93.3684 43.504C93.3684 42.576 93.571 41.7653 93.9764 41.072C94.3924 40.3787 94.9524 39.8453 95.6564 39.472C96.371 39.0987 97.1764 38.912 98.0724 38.912C98.9684 38.912 99.7684 39.0987 100.472 39.472C101.187 39.8453 101.747 40.3787 102.152 41.072C102.568 41.7653 102.776 42.576 102.776 43.504C102.776 44.432 102.568 45.248 102.152 45.952C101.747 46.6453 101.187 47.1787 100.472 47.552C99.7577 47.9253 98.9524 48.112 98.0564 48.112ZM98.0564 45.392C98.4937 45.392 98.8564 45.232 99.1444 44.912C99.443 44.5813 99.5924 44.112 99.5924 43.504C99.5924 42.896 99.443 42.432 99.1444 42.112C98.8564 41.792 98.499 41.632 98.0724 41.632C97.6457 41.632 97.2884 41.792 97.0004 42.112C96.7124 42.432 96.5684 42.896 96.5684 43.504C96.5684 44.1227 96.707 44.592 96.9844 44.912C97.2617 45.232 97.619 45.392 98.0564 45.392ZM103.54 43.504C103.54 42.576 103.706 41.7653 104.036 41.072C104.378 40.3787 104.836 39.8453 105.412 39.472C105.999 39.0987 106.65 38.912 107.364 38.912C107.983 38.912 108.516 39.0347 108.964 39.28C109.412 39.5253 109.759 39.856 110.004 40.272V39.024H113.14V48H110.004V46.752C109.759 47.168 109.407 47.4987 108.948 47.744C108.5 47.9893 107.972 48.112 107.364 48.112C106.65 48.112 105.999 47.9253 105.412 47.552C104.836 47.1787 104.378 46.6453 104.036 45.952C103.706 45.248 103.54 44.432 103.54 43.504ZM110.004 43.504C110.004 42.928 109.844 42.4747 109.524 42.144C109.215 41.8133 108.831 41.648 108.372 41.648C107.903 41.648 107.514 41.8133 107.204 42.144C106.895 42.464 106.74 42.9173 106.74 43.504C106.74 44.08 106.895 44.5387 107.204 44.88C107.514 45.2107 107.903 45.376 108.372 45.376C108.831 45.376 109.215 45.2107 109.524 44.88C109.844 44.5493 110.004 44.0907 110.004 43.504ZM114.415 43.504C114.415 42.576 114.581 41.7653 114.911 41.072C115.253 40.3787 115.717 39.8453 116.303 39.472C116.89 39.0987 117.541 38.912 118.255 38.912C118.831 38.912 119.343 39.0347 119.791 39.28C120.25 39.5147 120.607 39.84 120.863 40.256V36.16H124.015V48H120.863V46.752C120.618 47.168 120.271 47.4987 119.823 47.744C119.375 47.9893 118.847 48.112 118.239 48.112C117.525 48.112 116.874 47.9253 116.287 47.552C115.711 47.1787 115.253 46.6453 114.911 45.952C114.581 45.248 114.415 44.432 114.415 43.504ZM120.879 43.504C120.879 42.928 120.719 42.4747 120.399 42.144C120.09 41.8133 119.706 41.648 119.247 41.648C118.778 41.648 118.389 41.8133 118.079 42.144C117.77 42.464 117.615 42.9173 117.615 43.504C117.615 44.08 117.77 44.5387 118.079 44.88C118.389 45.2107 118.778 45.376 119.247 45.376C119.706 45.376 120.09 45.2107 120.399 44.88C120.719 44.5493 120.879 44.0907 120.879 43.504ZM212.063 46.16H208.063L207.455 48H204.159L208.271 36.72H211.887L215.983 48H212.671L212.063 46.16ZM211.279 43.76L210.063 40.112L208.863 43.76H211.279ZM220.141 40.272C220.387 39.856 220.733 39.5253 221.181 39.28C221.629 39.0347 222.157 38.912 222.765 38.912C223.48 38.912 224.125 39.0987 224.701 39.472C225.288 39.8453 225.747 40.3787 226.077 41.072C226.419 41.7653 226.589 42.576 226.589 43.504C226.589 44.432 226.419 45.248 226.077 45.952C225.747 46.6453 225.288 47.1787 224.701 47.552C224.125 47.9253 223.48 48.112 222.765 48.112C222.157 48.112 221.629 47.9893 221.181 47.744C220.744 47.4987 220.397 47.168 220.141 46.752V52.288H217.005V39.024H220.141V40.272ZM223.405 43.504C223.405 42.9173 223.245 42.464 222.925 42.144C222.616 41.8133 222.232 41.648 221.773 41.648C221.315 41.648 220.925 41.8133 220.605 42.144C220.296 42.4747 220.141 42.928 220.141 43.504C220.141 44.0907 220.296 44.5493 220.605 44.88C220.925 45.2107 221.315 45.376 221.773 45.376C222.232 45.376 222.616 45.2107 222.925 44.88C223.245 44.5387 223.405 44.08 223.405 43.504ZM231.016 40.272C231.262 39.856 231.608 39.5253 232.056 39.28C232.504 39.0347 233.032 38.912 233.64 38.912C234.355 38.912 235 39.0987 235.576 39.472C236.163 39.8453 236.622 40.3787 236.952 41.072C237.294 41.7653 237.464 42.576 237.464 43.504C237.464 44.432 237.294 45.248 236.952 45.952C236.622 46.6453 236.163 47.1787 235.576 47.552C235 47.9253 234.355 48.112 233.64 48.112C233.032 48.112 232.504 47.9893 232.056 47.744C231.619 47.4987 231.272 47.168 231.016 46.752V52.288H227.88V39.024H231.016V40.272ZM234.28 43.504C234.28 42.9173 234.12 42.464 233.8 42.144C233.491 41.8133 233.107 41.648 232.648 41.648C232.19 41.648 231.8 41.8133 231.48 42.144C231.171 42.4747 231.016 42.928 231.016 43.504C231.016 44.0907 231.171 44.5493 231.48 44.88C231.8 45.2107 232.19 45.376 232.648 45.376C233.107 45.376 233.491 45.2107 233.8 44.88C234.12 44.5387 234.28 44.08 234.28 43.504ZM240.275 48.128C239.721 48.128 239.273 47.9787 238.931 47.68C238.601 47.3707 238.435 46.9813 238.435 46.512C238.435 46.0427 238.601 45.6533 238.931 45.344C239.273 45.0347 239.721 44.88 240.275 44.88C240.819 44.88 241.257 45.0347 241.587 45.344C241.929 45.6533 242.099 46.0427 242.099 46.512C242.099 46.9707 241.929 47.3547 241.587 47.664C241.257 47.9733 240.819 48.128 240.275 48.128ZM245.088 48.128C244.533 48.128 244.085 47.9787 243.744 47.68C243.413 47.3707 243.248 46.9813 243.248 46.512C243.248 46.0427 243.413 45.6533 243.744 45.344C244.085 45.0347 244.533 44.88 245.088 44.88C245.632 44.88 246.069 45.0347 246.4 45.344C246.741 45.6533 246.912 46.0427 246.912 46.512C246.912 46.9707 246.741 47.3547 246.4 47.664C246.069 47.9733 245.632 48.128 245.088 48.128ZM249.9 48.128C249.346 48.128 248.898 47.9787 248.556 47.68C248.226 47.3707 248.06 46.9813 248.06 46.512C248.06 46.0427 248.226 45.6533 248.556 45.344C248.898 45.0347 249.346 44.88 249.9 44.88C250.444 44.88 250.882 45.0347 251.212 45.344C251.554 45.6533 251.724 46.0427 251.724 46.512C251.724 46.9707 251.554 47.3547 251.212 47.664C250.882 47.9733 250.444 48.128 249.9 48.128Z" fill="white"/>
<path d="M133.329 36.72C134.513 36.72 135.547 36.96 136.433 37.44C137.329 37.9093 138.017 38.5707 138.497 39.424C138.977 40.2773 139.217 41.2533 139.217 42.352C139.217 43.44 138.971 44.4107 138.481 45.264C138.001 46.1173 137.313 46.7893 136.417 47.28C135.531 47.76 134.502 48 133.329 48H128.865V36.72H133.329ZM133.089 45.232C134.006 45.232 134.726 44.9813 135.249 44.48C135.771 43.9787 136.033 43.2693 136.033 42.352C136.033 41.424 135.771 40.7093 135.249 40.208C134.726 39.696 134.006 39.44 133.089 39.44H132.001V45.232H133.089ZM149.206 43.408C149.206 43.6533 149.19 43.8987 149.158 44.144H143.222C143.254 44.6347 143.388 45.0027 143.622 45.248C143.868 45.4827 144.177 45.6 144.55 45.6C145.073 45.6 145.446 45.3653 145.67 44.896H149.014C148.876 45.5147 148.604 46.0693 148.198 46.56C147.804 47.04 147.302 47.4187 146.694 47.696C146.086 47.9733 145.414 48.112 144.678 48.112C143.793 48.112 143.004 47.9253 142.31 47.552C141.628 47.1787 141.089 46.6453 140.694 45.952C140.31 45.2587 140.118 44.4427 140.118 43.504C140.118 42.5653 140.31 41.7547 140.694 41.072C141.078 40.3787 141.612 39.8453 142.294 39.472C142.988 39.0987 143.782 38.912 144.678 38.912C145.564 38.912 146.348 39.0933 147.03 39.456C147.713 39.8187 148.246 40.3413 148.63 41.024C149.014 41.696 149.206 42.4907 149.206 43.408ZM146.006 42.624C146.006 42.24 145.878 41.9413 145.622 41.728C145.366 41.504 145.046 41.392 144.662 41.392C144.278 41.392 143.964 41.4987 143.718 41.712C143.473 41.9147 143.313 42.2187 143.238 42.624H146.006ZM160.586 36.72V48H157.45V43.472H153.626V48H150.49V36.72H153.626V40.96H157.45V36.72H160.586ZM166.556 48.112C165.66 48.112 164.855 47.9253 164.14 47.552C163.436 47.1787 162.882 46.6453 162.476 45.952C162.071 45.2587 161.868 44.4427 161.868 43.504C161.868 42.576 162.071 41.7653 162.476 41.072C162.892 40.3787 163.452 39.8453 164.156 39.472C164.871 39.0987 165.676 38.912 166.572 38.912C167.468 38.912 168.268 39.0987 168.972 39.472C169.687 39.8453 170.247 40.3787 170.652 41.072C171.068 41.7653 171.276 42.576 171.276 43.504C171.276 44.432 171.068 45.248 170.652 45.952C170.247 46.6453 169.687 47.1787 168.972 47.552C168.258 47.9253 167.452 48.112 166.556 48.112ZM166.556 45.392C166.994 45.392 167.356 45.232 167.644 44.912C167.943 44.5813 168.092 44.112 168.092 43.504C168.092 42.896 167.943 42.432 167.644 42.112C167.356 41.792 166.999 41.632 166.572 41.632C166.146 41.632 165.788 41.792 165.5 42.112C165.212 42.432 165.068 42.896 165.068 43.504C165.068 44.1227 165.207 44.592 165.484 44.912C165.762 45.232 166.119 45.392 166.556 45.392ZM180.2 36.72V39.216H175.688V41.2H179.016V43.584H175.688V48H172.552V36.72H180.2ZM185.697 48.112C184.801 48.112 183.996 47.9253 183.281 47.552C182.577 47.1787 182.022 46.6453 181.617 45.952C181.212 45.2587 181.009 44.4427 181.009 43.504C181.009 42.576 181.212 41.7653 181.617 41.072C182.033 40.3787 182.593 39.8453 183.297 39.472C184.012 39.0987 184.817 38.912 185.713 38.912C186.609 38.912 187.409 39.0987 188.113 39.472C188.828 39.8453 189.388 40.3787 189.793 41.072C190.209 41.7653 190.417 42.576 190.417 43.504C190.417 44.432 190.209 45.248 189.793 45.952C189.388 46.6453 188.828 47.1787 188.113 47.552C187.398 47.9253 186.593 48.112 185.697 48.112ZM185.697 45.392C186.134 45.392 186.497 45.232 186.785 44.912C187.084 44.5813 187.233 44.112 187.233 43.504C187.233 42.896 187.084 42.432 186.785 42.112C186.497 41.792 186.14 41.632 185.713 41.632C185.286 41.632 184.929 41.792 184.641 42.112C184.353 42.432 184.209 42.896 184.209 43.504C184.209 44.1227 184.348 44.592 184.625 44.912C184.902 45.232 185.26 45.392 185.697 45.392ZM195.869 48.112C194.973 48.112 194.168 47.9253 193.453 47.552C192.749 47.1787 192.194 46.6453 191.789 45.952C191.384 45.2587 191.181 44.4427 191.181 43.504C191.181 42.576 191.384 41.7653 191.789 41.072C192.205 40.3787 192.765 39.8453 193.469 39.472C194.184 39.0987 194.989 38.912 195.885 38.912C196.781 38.912 197.581 39.0987 198.285 39.472C199 39.8453 199.56 40.3787 199.965 41.072C200.381 41.7653 200.589 42.576 200.589 43.504C200.589 44.432 200.381 45.248 199.965 45.952C199.56 46.6453 199 47.1787 198.285 47.552C197.57 47.9253 196.765 48.112 195.869 48.112ZM195.869 45.392C196.306 45.392 196.669 45.232 196.957 44.912C197.256 44.5813 197.405 44.112 197.405 43.504C197.405 42.896 197.256 42.432 196.957 42.112C196.669 41.792 196.312 41.632 195.885 41.632C195.458 41.632 195.101 41.792 194.813 42.112C194.525 42.432 194.381 42.896 194.381 43.504C194.381 44.1227 194.52 44.592 194.797 44.912C195.074 45.232 195.432 45.392 195.869 45.392Z" fill="black"/>
<path d="M44.648 73.084C44.088 73.084 43.584 72.988 43.136 72.796C42.688 72.596 42.336 72.316 42.08 71.956C41.824 71.596 41.696 71.176 41.696 70.696H43.16C43.192 71.056 43.332 71.352 43.58 71.584C43.836 71.816 44.192 71.932 44.648 71.932C45.12 71.932 45.488 71.82 45.752 71.596C46.016 71.364 46.148 71.068 46.148 70.708C46.148 70.428 46.064 70.2 45.896 70.024C45.736 69.848 45.532 69.712 45.284 69.616C45.044 69.52 44.708 69.416 44.276 69.304C43.732 69.16 43.288 69.016 42.944 68.872C42.608 68.72 42.32 68.488 42.08 68.176C41.84 67.864 41.72 67.448 41.72 66.928C41.72 66.448 41.84 66.028 42.08 65.668C42.32 65.308 42.656 65.032 43.088 64.84C43.52 64.648 44.02 64.552 44.588 64.552C45.396 64.552 46.056 64.756 46.568 65.164C47.088 65.564 47.376 66.116 47.432 66.82H45.92C45.896 66.516 45.752 66.256 45.488 66.04C45.224 65.824 44.876 65.716 44.444 65.716C44.052 65.716 43.732 65.816 43.484 66.016C43.236 66.216 43.112 66.504 43.112 66.88C43.112 67.136 43.188 67.348 43.34 67.516C43.5 67.676 43.7 67.804 43.94 67.9C44.18 67.996 44.508 68.1 44.924 68.212C45.476 68.364 45.924 68.516 46.268 68.668C46.62 68.82 46.916 69.056 47.156 69.376C47.404 69.688 47.528 70.108 47.528 70.636C47.528 71.06 47.412 71.46 47.18 71.836C46.956 72.212 46.624 72.516 46.184 72.748C45.752 72.972 45.24 73.084 44.648 73.084ZM50.7382 67.504V71.164C50.7382 71.412 50.7942 71.592 50.9062 71.704C51.0262 71.808 51.2262 71.86 51.5062 71.86H52.3462V73H51.2662C50.6502 73 50.1782 72.856 49.8502 72.568C49.5222 72.28 49.3582 71.812 49.3582 71.164V67.504H48.5782V66.388H49.3582V64.744H50.7382V66.388H52.3462V67.504H50.7382ZM53.151 69.664C53.151 69 53.287 68.412 53.559 67.9C53.839 67.388 54.215 66.992 54.687 66.712C55.167 66.424 55.695 66.28 56.271 66.28C56.791 66.28 57.243 66.384 57.627 66.592C58.019 66.792 58.331 67.044 58.563 67.348V66.388H59.943V73H58.563V72.016C58.331 72.328 58.015 72.588 57.615 72.796C57.215 73.004 56.759 73.108 56.247 73.108C55.679 73.108 55.159 72.964 54.687 72.676C54.215 72.38 53.839 71.972 53.559 71.452C53.287 70.924 53.151 70.328 53.151 69.664ZM58.563 69.688C58.563 69.232 58.467 68.836 58.275 68.5C58.091 68.164 57.847 67.908 57.543 67.732C57.239 67.556 56.911 67.468 56.559 67.468C56.207 67.468 55.879 67.556 55.575 67.732C55.271 67.9 55.023 68.152 54.831 68.488C54.647 68.816 54.555 69.208 54.555 69.664C54.555 70.12 54.647 70.52 54.831 70.864C55.023 71.208 55.271 71.472 55.575 71.656C55.887 71.832 56.215 71.92 56.559 71.92C56.911 71.92 57.239 71.832 57.543 71.656C57.847 71.48 58.091 71.224 58.275 70.888C58.467 70.544 58.563 70.144 58.563 69.688ZM63.1078 67.348C63.3078 67.012 63.5718 66.752 63.8998 66.568C64.2358 66.376 64.6318 66.28 65.0878 66.28V67.696H64.7398C64.2038 67.696 63.7958 67.832 63.5158 68.104C63.2438 68.376 63.1078 68.848 63.1078 69.52V73H61.7398V66.388H63.1078V67.348ZM67.9413 67.504V71.164C67.9413 71.412 67.9973 71.592 68.1093 71.704C68.2293 71.808 68.4293 71.86 68.7093 71.86H69.5493V73H68.4693C67.8533 73 67.3813 72.856 67.0533 72.568C66.7253 72.28 66.5613 71.812 66.5613 71.164V67.504H65.7813V66.388H66.5613V64.744H67.9413V66.388H69.5493V67.504H67.9413ZM76.7953 73.108C76.1713 73.108 75.6073 72.968 75.1033 72.688C74.5993 72.4 74.2033 72 73.9153 71.488C73.6273 70.968 73.4833 70.368 73.4833 69.688C73.4833 69.016 73.6313 68.42 73.9273 67.9C74.2233 67.38 74.6273 66.98 75.1393 66.7C75.6513 66.42 76.2233 66.28 76.8553 66.28C77.4873 66.28 78.0593 66.42 78.5713 66.7C79.0833 66.98 79.4873 67.38 79.7833 67.9C80.0793 68.42 80.2273 69.016 80.2273 69.688C80.2273 70.36 80.0753 70.956 79.7713 71.476C79.4673 71.996 79.0513 72.4 78.5233 72.688C78.0033 72.968 77.4273 73.108 76.7953 73.108ZM76.7953 71.92C77.1473 71.92 77.4753 71.836 77.7793 71.668C78.0913 71.5 78.3433 71.248 78.5353 70.912C78.7273 70.576 78.8233 70.168 78.8233 69.688C78.8233 69.208 78.7313 68.804 78.5473 68.476C78.3633 68.14 78.1193 67.888 77.8153 67.72C77.5113 67.552 77.1833 67.468 76.8313 67.468C76.4793 67.468 76.1513 67.552 75.8473 67.72C75.5513 67.888 75.3153 68.14 75.1393 68.476C74.9633 68.804 74.8753 69.208 74.8753 69.688C74.8753 70.4 75.0553 70.952 75.4153 71.344C75.7833 71.728 76.2433 71.92 76.7953 71.92ZM82.9477 67.348C83.1477 67.012 83.4117 66.752 83.7397 66.568C84.0757 66.376 84.4717 66.28 84.9277 66.28V67.696H84.5797C84.0437 67.696 83.6357 67.832 83.3557 68.104C83.0837 68.376 82.9477 68.848 82.9477 69.52V73H81.5797V66.388H82.9477V67.348ZM85.7292 69.664C85.7292 69 85.8652 68.412 86.1372 67.9C86.4172 67.388 86.7932 66.992 87.2652 66.712C87.7452 66.424 88.2772 66.28 88.8612 66.28C89.2932 66.28 89.7172 66.376 90.1332 66.568C90.5572 66.752 90.8932 67 91.1412 67.312V64.12H92.5212V73H91.1412V72.004C90.9172 72.324 90.6052 72.588 90.2052 72.796C89.8132 73.004 89.3612 73.108 88.8492 73.108C88.2732 73.108 87.7452 72.964 87.2652 72.676C86.7932 72.38 86.4172 71.972 86.1372 71.452C85.8652 70.924 85.7292 70.328 85.7292 69.664ZM91.1412 69.688C91.1412 69.232 91.0452 68.836 90.8532 68.5C90.6692 68.164 90.4252 67.908 90.1212 67.732C89.8172 67.556 89.4892 67.468 89.1372 67.468C88.7852 67.468 88.4572 67.556 88.1532 67.732C87.8492 67.9 87.6012 68.152 87.4092 68.488C87.2252 68.816 87.1332 69.208 87.1332 69.664C87.1332 70.12 87.2252 70.52 87.4092 70.864C87.6012 71.208 87.8492 71.472 88.1532 71.656C88.4652 71.832 88.7932 71.92 89.1372 71.92C89.4892 71.92 89.8172 71.832 90.1212 71.656C90.4252 71.48 90.6692 71.224 90.8532 70.888C91.0452 70.544 91.1412 70.144 91.1412 69.688ZM100.378 69.532C100.378 69.78 100.362 70.004 100.33 70.204H95.278C95.318 70.732 95.514 71.156 95.866 71.476C96.218 71.796 96.65 71.956 97.162 71.956C97.898 71.956 98.418 71.648 98.722 71.032H100.198C99.998 71.64 99.634 72.14 99.106 72.532C98.586 72.916 97.938 73.108 97.162 73.108C96.53 73.108 95.962 72.968 95.458 72.688C94.962 72.4 94.57 72 94.282 71.488C94.002 70.968 93.862 70.368 93.862 69.688C93.862 69.008 93.998 68.412 94.27 67.9C94.55 67.38 94.938 66.98 95.434 66.7C95.938 66.42 96.514 66.28 97.162 66.28C97.786 66.28 98.342 66.416 98.83 66.688C99.318 66.96 99.698 67.344 99.97 67.84C100.242 68.328 100.378 68.892 100.378 69.532ZM98.95 69.1C98.942 68.596 98.762 68.192 98.41 67.888C98.058 67.584 97.622 67.432 97.102 67.432C96.63 67.432 96.226 67.584 95.89 67.888C95.554 68.184 95.354 68.588 95.29 69.1H98.95ZM103.092 67.348C103.292 67.012 103.556 66.752 103.884 66.568C104.22 66.376 104.616 66.28 105.072 66.28V67.696H104.724C104.188 67.696 103.78 67.832 103.5 68.104C103.228 68.376 103.092 68.848 103.092 69.52V73H101.724V66.388H103.092V67.348ZM107.026 65.512C106.778 65.512 106.57 65.428 106.402 65.26C106.234 65.092 106.15 64.884 106.15 64.636C106.15 64.388 106.234 64.18 106.402 64.012C106.57 63.844 106.778 63.76 107.026 63.76C107.266 63.76 107.47 63.844 107.638 64.012C107.806 64.18 107.89 64.388 107.89 64.636C107.89 64.884 107.806 65.092 107.638 65.26C107.47 65.428 107.266 65.512 107.026 65.512ZM107.698 66.388V73H106.33V66.388H107.698ZM112.83 66.28C113.35 66.28 113.814 66.388 114.222 66.604C114.638 66.82 114.962 67.14 115.194 67.564C115.426 67.988 115.542 68.5 115.542 69.1V73H114.186V69.304C114.186 68.712 114.038 68.26 113.742 67.948C113.446 67.628 113.042 67.468 112.53 67.468C112.018 67.468 111.61 67.628 111.306 67.948C111.01 68.26 110.862 68.712 110.862 69.304V73H109.494V66.388H110.862V67.144C111.086 66.872 111.37 66.66 111.714 66.508C112.066 66.356 112.438 66.28 112.83 66.28ZM119.951 66.28C120.463 66.28 120.915 66.384 121.307 66.592C121.707 66.792 122.019 67.044 122.243 67.348V66.388H123.623V73.108C123.623 73.716 123.495 74.256 123.239 74.728C122.983 75.208 122.611 75.584 122.123 75.856C121.643 76.128 121.067 76.264 120.395 76.264C119.499 76.264 118.755 76.052 118.163 75.628C117.571 75.212 117.235 74.644 117.155 73.924H118.511C118.615 74.268 118.835 74.544 119.171 74.752C119.515 74.968 119.923 75.076 120.395 75.076C120.947 75.076 121.391 74.908 121.727 74.572C122.071 74.236 122.243 73.748 122.243 73.108V72.004C122.011 72.316 121.695 72.58 121.295 72.796C120.903 73.004 120.455 73.108 119.951 73.108C119.375 73.108 118.847 72.964 118.367 72.676C117.895 72.38 117.519 71.972 117.239 71.452C116.967 70.924 116.831 70.328 116.831 69.664C116.831 69 116.967 68.412 117.239 67.9C117.519 67.388 117.895 66.992 118.367 66.712C118.847 66.424 119.375 66.28 119.951 66.28ZM122.243 69.688C122.243 69.232 122.147 68.836 121.955 68.5C121.771 68.164 121.527 67.908 121.223 67.732C120.919 67.556 120.591 67.468 120.239 67.468C119.887 67.468 119.559 67.556 119.255 67.732C118.951 67.9 118.703 68.152 118.511 68.488C118.327 68.816 118.235 69.208 118.235 69.664C118.235 70.12 118.327 70.52 118.511 70.864C118.703 71.208 118.951 71.472 119.255 71.656C119.567 71.832 119.895 71.92 120.239 71.92C120.591 71.92 120.919 71.832 121.223 71.656C121.527 71.48 121.771 71.224 121.955 70.888C122.147 70.544 122.243 70.144 122.243 69.688ZM131.309 67.504H130.085V73H128.705V67.504H127.925V66.388H128.705V65.92C128.705 65.16 128.905 64.608 129.305 64.264C129.713 63.912 130.349 63.736 131.213 63.736V64.876C130.797 64.876 130.505 64.956 130.337 65.116C130.169 65.268 130.085 65.536 130.085 65.92V66.388H131.309V67.504ZM135.389 73.108C134.765 73.108 134.201 72.968 133.697 72.688C133.193 72.4 132.797 72 132.509 71.488C132.221 70.968 132.077 70.368 132.077 69.688C132.077 69.016 132.225 68.42 132.521 67.9C132.817 67.38 133.221 66.98 133.733 66.7C134.245 66.42 134.817 66.28 135.449 66.28C136.081 66.28 136.653 66.42 137.165 66.7C137.677 66.98 138.081 67.38 138.377 67.9C138.673 68.42 138.821 69.016 138.821 69.688C138.821 70.36 138.669 70.956 138.365 71.476C138.061 71.996 137.645 72.4 137.117 72.688C136.597 72.968 136.021 73.108 135.389 73.108ZM135.389 71.92C135.741 71.92 136.069 71.836 136.373 71.668C136.685 71.5 136.937 71.248 137.129 70.912C137.321 70.576 137.417 70.168 137.417 69.688C137.417 69.208 137.325 68.804 137.141 68.476C136.957 68.14 136.713 67.888 136.409 67.72C136.105 67.552 135.777 67.468 135.425 67.468C135.073 67.468 134.745 67.552 134.441 67.72C134.145 67.888 133.909 68.14 133.733 68.476C133.557 68.804 133.469 69.208 133.469 69.688C133.469 70.4 133.649 70.952 134.009 71.344C134.377 71.728 134.837 71.92 135.389 71.92ZM143.041 73.108C142.417 73.108 141.853 72.968 141.349 72.688C140.845 72.4 140.449 72 140.161 71.488C139.873 70.968 139.729 70.368 139.729 69.688C139.729 69.016 139.877 68.42 140.173 67.9C140.469 67.38 140.873 66.98 141.385 66.7C141.897 66.42 142.469 66.28 143.101 66.28C143.733 66.28 144.305 66.42 144.817 66.7C145.329 66.98 145.733 67.38 146.029 67.9C146.325 68.42 146.473 69.016 146.473 69.688C146.473 70.36 146.321 70.956 146.017 71.476C145.713 71.996 145.297 72.4 144.769 72.688C144.249 72.968 143.673 73.108 143.041 73.108ZM143.041 71.92C143.393 71.92 143.721 71.836 144.025 71.668C144.337 71.5 144.589 71.248 144.781 70.912C144.973 70.576 145.069 70.168 145.069 69.688C145.069 69.208 144.977 68.804 144.793 68.476C144.609 68.14 144.365 67.888 144.061 67.72C143.757 67.552 143.429 67.468 143.077 67.468C142.725 67.468 142.397 67.552 142.093 67.72C141.797 67.888 141.561 68.14 141.385 68.476C141.209 68.804 141.121 69.208 141.121 69.688C141.121 70.4 141.301 70.952 141.661 71.344C142.029 71.728 142.489 71.92 143.041 71.92ZM147.37 69.664C147.37 69 147.506 68.412 147.778 67.9C148.058 67.388 148.434 66.992 148.906 66.712C149.386 66.424 149.918 66.28 150.502 66.28C150.934 66.28 151.358 66.376 151.774 66.568C152.198 66.752 152.534 67 152.782 67.312V64.12H154.162V73H152.782V72.004C152.558 72.324 152.246 72.588 151.846 72.796C151.454 73.004 151.002 73.108 150.49 73.108C149.914 73.108 149.386 72.964 148.906 72.676C148.434 72.38 148.058 71.972 147.778 71.452C147.506 70.924 147.37 70.328 147.37 69.664ZM152.782 69.688C152.782 69.232 152.686 68.836 152.494 68.5C152.31 68.164 152.066 67.908 151.762 67.732C151.458 67.556 151.13 67.468 150.778 67.468C150.426 67.468 150.098 67.556 149.794 67.732C149.49 67.9 149.242 68.152 149.05 68.488C148.866 68.816 148.774 69.208 148.774 69.664C148.774 70.12 148.866 70.52 149.05 70.864C149.242 71.208 149.49 71.472 149.794 71.656C150.106 71.832 150.434 71.92 150.778 71.92C151.13 71.92 151.458 71.832 151.762 71.656C152.066 71.48 152.31 71.224 152.494 70.888C152.686 70.544 152.782 70.144 152.782 69.688Z" fill="white"/>
<defs>
<linearGradient id="paint0_linear_171_2" x1="23" y1="93.6667" x2="303.243" y2="86.4279" gradientUnits="userSpaceOnUse">
<stop stop-color="#FF9CBD"/>
<stop offset="1" stop-color="#FF6F9F"/>
</linearGradient>
<linearGradient id="paint1_linear_171_2" x1="8.31897e-07" y1="71.7037" x2="288.623" y2="65.4228" gradientUnits="userSpaceOnUse">
<stop stop-color="#FF3176"/>
<stop offset="1" stop-color="#FA0053"/>
</linearGradient>
</defs>
</svg>
